HIERARCHY
ROOT Hips
{
	OFFSET -0.001795 -0.223333 0.028219
	CHANNELS 6 Xposition Yposition Zposition Zrotation Yrotation Xrotation 
	JOINT LeftUpLeg
	{
		OFFSET 0.069520 -0.091406 -0.006815
		CHANNELS 3 Zrotation Yrotation Xrotation
		JOINT LeftLeg
		{
			OFFSET 0.034277 -0.375199 -0.004496
			CHANNELS 3 Zrotation Yrotation Xrotation
			JOINT LeftFoot
			{
				OFFSET -0.013596 -0.397961 -0.043693
				CHANNELS 3 Zrotation Yrotation Xrotation
				JOINT LeftToe
				{
					OFFSET 0.026358 -0.055791 0.119288
					CHANNELS 3 Zrotation Yrotation Xrotation
					End Site
					{
						OFFSET 0.000000 0.000000 0.000000
					}
				}
			}
		}
	}
	JOINT RightUpLeg
	{
		OFFSET -0.067670 -0.090522 -0.004320
		CHANNELS 3 Zrotation Yrotation Xrotation
		JOINT RightLeg
		{
			OFFSET -0.038290 -0.382569 -0.008850
			CHANNELS 3 Zrotation Yrotation Xrotation
			JOINT RightFoot
			{
				OFFSET 0.015774 -0.398415 -0.042312
				CHANNELS 3 Zrotation Yrotation Xrotation
				JOINT RightToe
				{
					OFFSET -0.025372 -0.048144 0.123348
					CHANNELS 3 Zrotation Yrotation Xrotation
					End Site
					{
						OFFSET 0.000000 0.000000 0.000000
					}
				}
			}
		}
	}
	JOINT Spine
	{
		OFFSET -0.002533 0.108963 -0.026696
		CHANNELS 3 Zrotation Yrotation Xrotation
		JOINT Spine1
		{
			OFFSET 0.005487 0.135180 0.001092
			CHANNELS 3 Zrotation Yrotation Xrotation
			JOINT Spine2
			{
				OFFSET 0.001457 0.052922 0.025425
				CHANNELS 3 Zrotation Yrotation Xrotation
				JOINT Neck
				{
					OFFSET -0.002778 0.213870 -0.042857
					CHANNELS 3 Zrotation Yrotation Xrotation
					JOINT Head
					{
						OFFSET 0.005152 0.064970 0.051349
						CHANNELS 3 Zrotation Yrotation Xrotation
						End Site
						{
							OFFSET 0.000000 0.000000 0.000000
						}
					}
				}
				JOINT LeftShoulder
				{
					OFFSET 0.078845 0.121749 -0.034090
					CHANNELS 3 Zrotation Yrotation Xrotation
					JOINT LeftArm
					{
						OFFSET 0.090977 0.030469 -0.008868
						CHANNELS 3 Zrotation Yrotation Xrotation
						JOINT LeftForeArm
						{
							OFFSET 0.259612 -0.012772 -0.027456
							CHANNELS 3 Zrotation Yrotation Xrotation
							JOINT LeftHand
							{
								OFFSET 0.249234 0.008986 -0.001171
								CHANNELS 3 Zrotation Yrotation Xrotation
								End Site
								{
									OFFSET 0.000000 0.000000 0.000000
								}
							}
						}
					}
				}
				JOINT RightShoulder
				{
					OFFSET -0.081759 0.118833 -0.038615
					CHANNELS 3 Zrotation Yrotation Xrotation
					JOINT RightArm
					{
						OFFSET -0.096012 0.032551 -0.009143
						CHANNELS 3 Zrotation Yrotation Xrotation
						JOINT RightForeArm
						{
							OFFSET -0.253742 -0.013329 -0.021401
							CHANNELS 3 Zrotation Yrotation Xrotation
							JOINT RightHand
							{
								OFFSET -0.255298 0.007772 -0.005559
								CHANNELS 3 Zrotation Yrotation Xrotation
								End Site
								{
									OFFSET 0.000000 0.000000 0.000000
								}
							}
						}
					}
				}
			}
		}
	}
}
MOTION
Frames: 7
Frame Time: 0.050000
-0.046917 0.930240 -0.243393 0.236762 7.038886 1.520184 4.481507 -0.972452 -14.394782 -9.428877 1.704839 38.156362 9.102803 18.133232 -2.831983 0.000000 0.000000 0.000000 2.587234 1.633171 -14.404901 2.209557 -0.174445 11.690269 -9.003688 -21.199851 9.012596 0.000000 0.000000 0.000000 -2.789065 -0.217342 10.868061 7.224144 -1.048401 -23.962387 1.152885 -3.947245 32.175107 0.739966 2.314898 -47.018782 0.000000 0.000000 0.000000 -23.716358 6.123326 -5.152709 -62.471845 7.581814 -14.423332 -40.564886 -46.407248 22.116818 0.000000 0.000000 0.000000 11.997516 4.334306 1.697456 60.759318 -0.265070 -9.030249 32.846030 51.549540 19.761759 0.000000 0.000000 0.000000 
-0.044309 0.926045 -0.268483 -0.252203 6.999021 0.948201 2.805480 -0.635664 -8.229360 -5.753338 0.105420 36.328819 7.199845 13.833835 -3.846249 0.000000 0.000000 0.000000 2.301628 1.751693 -15.826379 3.146215 -0.387577 11.692624 -9.582166 -22.255980 9.249187 0.000000 0.000000 0.000000 -1.891168 -0.287854 10.177544 6.617566 -0.911035 -23.826211 0.541870 -5.734945 32.300437 1.205570 1.960844 -47.267561 0.000000 0.000000 0.000000 -22.950662 5.359787 -3.992743 -64.420309 5.459052 -13.775403 -40.664380 -48.547373 23.903902 0.000000 0.000000 0.000000 12.724258 3.877501 1.171154 60.898030 -1.266755 -9.663239 34.705381 51.841168 20.517166 0.000000 0.000000 0.000000 
-0.040418 0.921278 -0.298024 -1.083941 7.006821 0.974905 1.947946 -0.224373 -2.421865 -3.773166 -0.381981 28.963534 5.726464 9.700302 -6.309454 0.000000 0.000000 0.000000 2.189931 2.032617 -18.807280 4.194776 -0.642352 12.444920 -11.333419 -25.302575 10.382036 0.000000 0.000000 0.000000 -1.060884 -0.378717 10.325664 6.761647 -0.909926 -24.368954 -0.377987 -6.993488 32.194552 2.035070 1.449131 -46.242303 0.000000 0.000000 0.000000 -22.716388 5.108725 -3.453022 -65.766480 3.351705 -12.852971 -42.311107 -51.676801 26.994201 0.000000 0.000000 0.000000 14.002378 3.584670 0.744605 60.755594 -2.140358 -10.103698 34.713268 52.617894 20.579783 0.000000 0.000000 0.000000 
-0.036020 0.916528 -0.332624 -1.620142 8.247051 1.579051 1.123328 0.010372 0.607228 -1.855554 -0.597749 19.810486 5.880995 8.239617 -10.024013 0.000000 0.000000 0.000000 1.177047 2.163031 -22.823667 5.279916 -1.004807 14.219009 -12.084438 -25.984338 12.953694 0.000000 0.000000 0.000000 -0.692307 -0.438604 10.547835 6.687627 -0.903042 -23.837392 -1.233604 -9.363236 32.046612 2.964868 1.007414 -47.135827 0.000000 0.000000 0.000000 -21.523575 3.756897 -2.091696 -67.499276 0.089636 -11.216829 -40.449018 -54.977884 28.352991 0.000000 0.000000 0.000000 15.420007 3.384843 0.217006 59.761709 -2.961360 -10.316256 35.331978 55.400915 21.750773 0.000000 0.000000 0.000000 
-0.032639 0.914415 -0.369806 -1.311757 8.449493 1.357561 0.815460 0.073714 1.299116 -2.268813 -0.234999 14.471532 6.077670 8.236219 -10.896889 0.000000 0.000000 0.000000 -0.583535 2.023721 -26.456539 5.959407 -1.317979 17.211942 -12.071083 -25.433453 15.336473 0.000000 0.000000 0.000000 -2.435724 -0.326713 12.163032 7.622276 -1.201219 -23.095972 -1.247034 -10.286046 32.339866 2.760312 1.234619 -49.615374 0.000000 0.000000 0.000000 -21.686284 3.378631 -1.607779 -67.301688 -3.938962 -8.898178 -39.604684 -58.756576 30.439830 0.000000 0.000000 0.000000 16.019696 3.639085 0.104099 59.742185 -1.598498 -9.661904 34.839431 56.721256 21.900373 0.000000 0.000000 0.000000 
-0.031206 0.914488 -0.403994 -1.510145 8.231038 0.807302 0.603164 0.011986 0.374854 -2.449291 -0.122493 12.795235 6.007228 8.343999 -10.345287 0.000000 0.000000 0.000000 -2.369339 1.721481 -28.812848 8.310352 -2.161350 19.759825 -12.812514 -26.429871 16.307938 0.000000 0.000000 0.000000 -3.845785 -0.228749 14.096138 8.638352 -1.501553 -22.823971 -0.877055 -9.545328 32.381213 2.170990 1.515555 -49.897317 0.000000 0.000000 0.000000 -20.788823 2.883105 -1.409687 -67.453283 -5.396135 -8.051348 -45.187182 -60.871908 35.514999 0.000000 0.000000 0.000000 15.568497 3.645752 0.265346 60.546098 -1.848395 -9.931155 37.060675 59.117304 24.593610 0.000000 0.000000 0.000000 
-0.031731 0.918984 -0.431245 -1.408283 7.597850 0.436706 0.254619 0.012065 0.231786 -2.980257 0.084800 10.045429 5.954474 9.436280 -7.710444 0.000000 0.000000 0.000000 -3.316541 1.566699 -29.704436 10.509821 -3.196768 23.931969 -14.840058 -29.439884 17.354764 0.000000 0.000000 0.000000 -5.395414 -0.035191 14.571988 9.671069 -1.854085 -22.273413 -0.644878 -9.369380 33.320631 0.061421 2.257856 -51.456772 0.000000 0.000000 0.000000 -21.504822 3.171361 -1.475577 -67.242153 -6.199666 -7.710648 -49.386415 -62.843362 40.214634 0.000000 0.000000 0.000000 14.351685 5.452907 1.216203 61.756926 -1.692949 -10.203584 39.352434 61.081100 27.118069 0.000000 0.000000 0.000000 
